<svg width="28" height="28" viewBox="0 0 28 28" fill="none" xmlns="http://www.w3.org/2000/svg">
<path d="M15.1666 2.33333C17.9514 2.33333 20.6221 3.43957 22.5913 5.40871C24.5604 7.37784 25.6666 10.0486 25.6666 12.8333M15.1666 7C16.7137 7 18.1975 7.61458 19.2914 8.70854C20.3854 9.8025 21 11.2862 21 12.8333M16.1373 19.3293C16.3783 19.44 16.6497 19.4653 16.907 19.401C17.1642 19.3368 17.3919 19.1868 17.5525 18.9758L17.9666 18.4333C18.184 18.1435 18.4658 17.9083 18.7898 17.7463C19.1138 17.5843 19.4711 17.5 19.8333 17.5H23.3333C23.9522 17.5 24.5456 17.7458 24.9832 18.1834C25.4208 18.621 25.6666 19.2145 25.6666 19.8333V23.3333C25.6666 23.9522 25.4208 24.5457 24.9832 24.9832C24.5456 25.4208 23.9522 25.6667 23.3333 25.6667C17.7638 25.6667 12.4223 23.4542 8.48407 19.5159C4.54581 15.5776 2.33331 10.2362 2.33331 4.66666C2.33331 4.04782 2.57915 3.45433 3.01673 3.01675C3.45432 2.57916 4.04781 2.33333 4.66665 2.33333H8.16665C8.78549 2.33333 9.37898 2.57916 9.81656 3.01675C10.2541 3.45433 10.5 4.04782 10.5 4.66666V8.16666C10.5 8.5289 10.4156 8.88616 10.2536 9.21016C10.0916 9.53416 9.85644 9.81599 9.56665 10.0333L9.02065 10.4428C8.80647 10.6064 8.6555 10.839 8.5934 11.1012C8.5313 11.3635 8.56189 11.6391 8.67998 11.8813C10.2744 15.1198 12.8968 17.7389 16.1373 19.3293Z" stroke="white" stroke-width="2" stroke-linecap="round" stroke-linejoin="round"/>
</svg>
