<svg width="31" height="37" viewBox="0 0 31 37" fill="none" xmlns="http://www.w3.org/2000/svg">
<path fill-rule="evenodd" clip-rule="evenodd" d="M15.4661 15.4C16.6331 15.4 17.7522 14.9364 18.5774 14.1113C19.4025 13.2861 19.8661 12.167 19.8661 11C19.8661 9.83305 19.4025 8.7139 18.5774 7.88874C17.7522 7.06358 16.6331 6.60001 15.4661 6.60001C14.2991 6.60001 13.18 7.06358 12.3548 7.88874C11.5297 8.7139 11.0661 9.83305 11.0661 11C11.0661 12.167 11.5297 13.2861 12.3548 14.1113C13.18 14.9364 14.2991 15.4 15.4661 15.4ZM15.4661 8.80001C16.0496 8.80001 16.6092 9.03179 17.0217 9.44437C17.4343 9.85695 17.6661 10.4165 17.6661 11C17.6661 11.5835 17.4343 12.1431 17.0217 12.5556C16.6092 12.9682 16.0496 13.2 15.4661 13.2C14.8826 13.2 14.323 12.9682 13.9105 12.5556C13.4979 12.1431 13.2661 11.5835 13.2661 11C13.2661 10.4165 13.4979 9.85695 13.9105 9.44437C14.323 9.03179 14.8826 8.80001 15.4661 8.80001Z" fill="white"/>
<path fill-rule="evenodd" clip-rule="evenodd" d="M5.5661 10.5292C5.5661 16.4098 11.4027 26.4 15.4661 26.4C19.5317 26.4 25.3661 16.4098 25.3661 10.5292C25.3661 4.73 20.9507 0 15.4661 0C9.9815 0 5.5661 4.73 5.5661 10.5292ZM23.1661 10.5292C23.1661 15.3538 18.0005 24.2 15.4661 24.2C12.9339 24.2 7.7661 15.356 7.7661 10.5292C7.7661 5.9114 11.2311 2.2 15.4661 2.2C19.7011 2.2 23.1661 5.9114 23.1661 10.5292Z" fill="white"/>
<path d="M23.0231 16.808C22.7601 16.6948 22.5515 16.4835 22.4418 16.219C22.3321 15.9545 22.3299 15.6576 22.4356 15.3915C22.5413 15.1254 22.7466 14.9109 23.0079 14.7938C23.2692 14.6767 23.5659 14.666 23.8349 14.7642C24.7295 15.119 25.5357 15.6652 26.197 16.3645C26.8583 17.0637 27.3586 17.8992 27.6629 18.8122L30.5977 27.6122C30.9287 28.6047 31.0189 29.6617 30.8611 30.6959C30.7032 31.7301 30.3017 32.712 29.6897 33.5606C29.0778 34.4092 28.2728 35.1001 27.3413 35.5764C26.4098 36.0527 25.3783 36.3007 24.3321 36.3H6.60012C5.55427 36.3 4.52338 36.0515 3.59243 35.5749C2.66147 35.0983 1.85711 34.4073 1.24562 33.5588C0.634141 32.7104 0.233049 31.7287 0.0754068 30.6948C-0.0822357 29.6609 0.00808464 28.6043 0.338923 27.6122L3.27152 18.8122C3.58118 17.8828 4.09385 17.034 4.77233 16.3273C5.4508 15.6207 6.27808 15.074 7.19412 14.7268C7.32919 14.6755 7.47303 14.6513 7.61744 14.6556C7.76185 14.66 7.90399 14.6927 8.03576 14.7519C8.16752 14.8111 8.28633 14.8958 8.3854 15.0009C8.48446 15.1061 8.56184 15.2297 8.61312 15.3648C8.6644 15.4999 8.68858 15.6437 8.68427 15.7881C8.67996 15.9325 8.64725 16.0747 8.58801 16.2064C8.52876 16.3382 8.44415 16.457 8.33899 16.5561C8.23383 16.6551 8.11019 16.7325 7.97512 16.7838C7.36365 17.0151 6.81141 17.3798 6.35855 17.8513C5.90569 18.3228 5.56359 18.8893 5.35712 19.5096L2.42452 28.3096C2.20421 28.9711 2.14424 29.6754 2.24955 30.3646C2.35485 31.0538 2.62243 31.7081 3.03022 32.2736C3.43801 32.8391 3.97434 33.2996 4.59501 33.6171C5.21569 33.9346 5.90293 34.1002 6.60012 34.1H24.3365C25.0338 34.0999 25.721 33.9341 26.3417 33.6163C26.9623 33.2985 27.4985 32.8378 27.9061 32.272C28.3137 31.7063 28.581 31.0518 28.686 30.3625C28.7909 29.6732 28.7306 28.9688 28.5099 28.3074L25.5795 19.5074C25.3764 18.899 25.0428 18.3423 24.602 17.8764C24.1611 17.4105 23.6238 17.0466 23.0275 16.8102" fill="white"/>
</svg>
