<svg width="45" height="45" viewBox="0 0 45 45" fill="none" xmlns="http://www.w3.org/2000/svg">
<path d="M3.0975 3.0975C5.86112e-07 6.2245 0 11.2248 0 21.24V23.01C0 33.0105 5.86112e-07 38.0107 3.0975 41.1525C6.2245 44.25 11.2248 44.25 21.24 44.25H23.01C33.0105 44.25 38.0107 44.25 41.1525 41.1525C44.25 38.0255 44.25 33.0252 44.25 23.01V21.24C44.25 11.2395 44.25 6.23925 41.1525 3.0975C38.0255 5.86112e-07 33.0252 0 23.01 0H21.24C11.2395 0 6.23925 5.86112e-07 3.0975 3.0975ZM7.4635 13.4667H12.5375C12.6998 21.9037 16.4167 25.4732 19.3668 26.2107V13.4667H24.131V20.7385C27.0367 20.4287 30.1047 17.11 31.1372 13.452H35.8867C35.4992 15.3455 34.7255 17.1387 33.6139 18.7197C32.5024 20.3008 31.0768 21.6358 29.4263 22.6412C31.2686 23.5579 32.8956 24.8548 34.2 26.4464C35.5043 28.0381 36.4562 29.8882 36.993 31.8747H31.7568C30.6357 28.379 27.8333 25.665 24.131 25.2962V31.8747H23.541C13.452 31.8747 7.6995 24.9717 7.4635 13.4667Z" fill="#F8F8F8"/>
</svg>
